<svg xmlns="http://www.w3.org/2000/svg" width="141.12" height="161.92" viewBox="0 0 441 506"><path fill="none" stroke="#000" d="M0 0l2.91 29 7.92 90 2.34 30 16.66 186 7.89 90 1.86 22c.26 1.99.35 5.96 1.44 7.49 1.77 2.49 14.44 5.2 17.98 6.22l49 13.71 75 21 36 10.22c3.81.45 7.42-1.17 11-2.22l20-5.71 71-19.83 59-16.46c4.63-1.28 18.46-3.91 20.83-7.69 1.52-2.44 1.06-6.84 1.34-9.73l2-23 8-91 16.66-186 3.34-41 6-68L441 0H0zm400 37l-.91 11-2.92 33-6 68-3.34 41-12.66 141-2.34 29-3.74 40-1.51 19-2.18 7.15-19.4 6.22-43 12-54 15.05-26 7.03-13-2.57-25-7-69-19.3L76 427l-3.17-34-5-57-17.66-198-6-68L41 37h359zM83 93l4 57h211l-1.83 20-3.17 36H155l3.01 39 2.01 16.4L168 263h120l-4.42 53c-.61 4.63-.2 14.24-3.16 17.57-1.87 2.11-5.76 2.96-8.42 3.72l-18 4.83-31 8.28c-3.7.46-9.31-1.64-13-2.69l-24-6.59-16-4.49c-2.46-.64-6.63-1.48-8.4-3.33-2.22-2.31-2.46-10.07-2.63-13.3L156 289h-56l5.58 67 1.33 14 1.69 7.44L121 382l30 8.42 46 13 24 5.98 23-5.69 40-11.29 35-9.71 14.4-5.22 2.77-20.49 4.92-56 5.74-62 6.34-75 4-45L359 93H83z"/></svg>