<svg xmlns="http://www.w3.org/2000/svg" width="141.12" height="155.2" viewBox="0 0 441 485">
  <path fill="none" stroke="#000" d="M0 0l3.17 34 6 66 19.66 212 8 87 2.08 23c.25 3.44.35 10.78 2.26 13.58 2.25 3.31 14.66 5.74 18.83 6.79l52 14 70 18.92c7.48 2.15 31.85 9.68 38 9.68 6.31 0 25.64-6.15 33-8.09l69-18.51 59-15.79c4.71-1.31 17.63-3.7 19.98-7.72 1.39-2.39.91-6.99 1.19-9.86l2.11-22 7.89-86 18-196 7-75 2.92-33L441 0H0zm400 37l-1.91 20-5.92 65-17 184-3.34 40-2.8 29-1.94 20c-.25 3.58.17 8.65-2.02 11.72-2.24 3.14-10.24 4.48-14.07 5.57l-39 10.42-63 16.92-28 7.03-26-6.51-54-14.52-47-12.51c-3.95-1.04-14.76-3.14-16.83-6.4-2.08-3.28-2.84-22.57-3.45-27.72l-6.89-75-17.66-190-5-55L42 37h358zM82 89l1.83 19 4 43L97 252h191l-4.83 48c-.45 4.74-.09 16.1-3.6 19.3-2.49 2.27-20.2 6.48-24.57 7.57l-33 8.04c-6.66.41-26.24-5.6-34-7.54-5.54-1.38-23.27-5.04-26.57-8.65-2.8-3.06-2.26-6.92-2.71-10.72L156 278h-56l4.91 59c.36 4.84.99 21.48 3.68 24.57 2.15 2.47 10.95 4.34 14.41 5.28l35 9.3 40 10.73c6.45 1.7 16.62 5.1 23 5.09 5.4 0 18.21-3.94 24-5.55l43-11.54 30-8.01c3-.75 12.47-2.95 14.44-4.72 2.94-2.65 2.4-8.54 2.65-12.15l2.93-31 2.81-29 4.34-49 3.83-44H148l-2.83-34-2.17-20h211l5-54H82z"/>
</svg>