<svg xmlns="http://www.w3.org/2000/svg" width="159.36" height="159.681" viewBox="0 0 498 499">
  <path fill="none" stroke="#000" d="M36 .08c-10.25 1.8-19.77 1.71-27.67 10.1C-.98 20.06 0 32.6 0 45v419c.01 5.17-.01 6.91 1.43 12 7.87 27.88 39 23 61.57 23h396c13.77-.02 27.1-3.1 34.47-16 5.62-9.84 4.53-22.11 4.53-33v-58V38c-.02-13.88-3.6-26.9-17-33.62-6.38-3.2-18.78-4.35-26-4.3h-62-238-77-42zm-4 25h426c11.63-.06 14.98.58 15 12.92v423c0 2.77.21 6.43-1.17 8.89-3.39 6.02-17.62 4.11-23.83 4.11h-76H38c-3.57-.01-8.65.35-11.28-2.51-2.42-2.64-2.68-8.07-2.72-11.49v-47-203V70 41c.01-7.67-.58-13.48 8-15.92zM401 285l36-22c-2.18-7.47-7.55-13.61-13-18.99-12.7-12.53-26.68-16.89-44-18.1l-7-.73-7 .73c-11.43.8-19.76 2.19-30 7.96-18.08 10.2-29.9 28.11-30 49.13v9c.08 6.95 1.72 13.62 4.43 20 10.15 23.92 32.56 34.09 54.57 44.74 12.61 6.1 35.75 12.82 36.9 29.26.98 14.03-8.96 21.83-21.9 23.7-12.43 1.79-23.96-2.07-32.96-10.79-4-3.88-7.15-8.46-10.46-12.91-1.36-1.81-3.24-4.67-5.67-4.99-2.57-.33-6.79 2.91-8.91 4.32L303 398c-2.94 1.99-6.75 3.86-5.89 8.01.68 3.28 6.35 11.17 8.56 13.99 10.86 13.87 23.41 22.62 40.33 27.42 37.83 10.72 88.55 1.99 101.97-40.42 2.18-6.87 3.11-14.8 3.03-22-.2-17.28-8.62-35.56-22-46.54-11.89-9.76-28.25-16.34-42-23.21-8.91-4.46-28.73-12.87-33.44-21.26-7.63-13.58 4.41-27.34 18.44-27.95 13.24-.58 22.32 8.45 29 18.96zm-176-59v143c-.2 17.19-3.15 35.25-25 33.91-8.51-.53-17-5.01-22.96-10.95-2.17-2.16-7.08-8.9-9.21-9.73-3.11-1.2-8.19 2.58-10.83 4.17L130 403c2.61 8.96 10.44 18.51 17 24.99 10.01 9.87 23.41 17.27 37 20.85 4.62 1.22 10.22 2.1 15 2.16h12c20.52-.1 41.73-9.83 52.13-28 12.46-21.78 9.87-46.89 9.87-71V226h-48z"/>
</svg>