<svg xmlns="http://www.w3.org/2000/svg" width="180.801" height="195.201" viewBox="0 0 565 610">
  <path fill="none" stroke="#000" d="M260 .22c-9.23 1.94-17.64 4.74-26 9.04-24.47 12.57-35.71 34.08-42.13 59.74-5.18 20.73-7.62 48.59-7.87 70l-.91 10c-.75 10.92-1.83 21.32-4.46 32-7.33 29.66-14.39 39.48-29.21 65l-23.16 43c-12.33 25.47-22.31 52.06-30.92 79l-8.43 30c-5.62 15.65-14.27 16.6-20.01 27-4.4 7.98-3.07 17.25-11.94 22.78-4.76 2.97-9.68 3.01-14.96 4.02-13.59 2.63-32.66 6.73-38.19 21.2C.4 476.7.05 480.09 0 484l2 35c-.06 13.61-6.08 31.33 3.53 42.91 7.07 8.52 30.5 14.68 41.47 16.67l41 4.85c12.03 1.78 22.42 4.8 34 8.29l38 12.95c6.96 2.32 13.58 5.24 21 5.08 2.65.28 7.59.41 10 0l25-12.74c16.28-6.77 40.36-12.8 58-13.01h79c2.61 0 5.49-.11 8 .65 5.49 1.65 19.69 12.99 25 16.98 6.49 4.87 8.59 8.25 17 8.37h12c12.56-.06 38.85-10.43 49-17.92 7.52-5.55 8.45-8.63 14.04-13.91 6.75-6.38 14.9-12.13 22.96-16.74l49-19.77c8.61-4.93 15.61-13.18 14.82-23.66-1.16-15.28-14.87-25.12-26.82-32.58-5.47-3.41-11.51-6.29-15.61-11.43-5.87-7.38-4.35-17.19-4.39-25.99-.04-7.37-1.8-16.96-4.03-24-1.51-4.79-4.2-10.12-4.96-15v-8l-4.27-34c-5.65-30.33-17.72-59.3-34.74-85-7.34-11.06-17.89-24.43-27.04-34-17.5-18.3-30.63-27.57-41.09-52-7.03-16.43-6.67-28.84-6.87-46l-.91-10-1.93-23c-4.05-37.89-14.3-75.38-47.16-98.56-7.01-4.95-14.98-8.99-23-12.02-9.2-3.47-18.09-6.4-28-6.2h-34zM322 148c0-6.55 1.61-19.51-1.17-25-4.53-8.89-14.53-9.42-19.82-.96-5.47 8.72 2.42 20.76-6.01 27.96-5.55-12.89-13.84-21.73-12.68-37 .45-5.89 2.11-13.64 4.58-19 7.65-16.61 27.97-24.33 41.78-9.82C343.52 99.79 343.5 138.19 322 148zm-84 0v-16c-.18-12.89-11.96-22.81-21.57-9.98-3.8 5.07-2.43 18.45-2.43 24.98-26.6-17.04-20.63-68.22 11-68.99 32.73-.79 33.79 43.05 23.52 59.99-2.9 4.79-5.89 7.06-10.52 10zm83 26v2c-20.47 13.65-38.55 25.04-64 25-18.14-.03-30.62-11.86-46-20v-2c8.92-6.72 15.52-13.19 26-18.11 22.05-10.36 45.59-8.83 67 2.43L321 174zm14 25l25.57 51c18.63 43.67 30.26 89.62 33.52 137l.75 10v24L384 455l-10.81 32c-2.33 6.14-4.1 11.87-8.52 16.96-6.98 8.06-23.5 15.3-33.67 18.71-29.53 9.88-61.18 9.69-92 9.33l-10-.91c-6.4-.44-9.75.75-16-2.49-7.54-3.92-17.47-15.33-24-21.56l-18.83-16.13c-13.42-13.82-20.08-26.66-29.45-42.91l-15.39-24c-3.3-4.97-7.46-10.94-8.14-17-.64-5.63 2.16-13.47 3.66-19l12.73-40c9.41-24.97 20.02-49.5 32.73-73l17.38-31 8.09-16L203 206c5.83 1.98 10.43 6.99 16 10.39 10.35 6.3 20.85 9.59 33 9.61 19.55.03 34.4-5.23 52-13.31L335 199zM98 430l14.69 23c9.98 18.16 12.52 28.17 27.48 45 5.89 6.64 11.95 12.89 18.83 18.54 9.88 8.11 17.88 11.74 25.29 23.46 4.81 7.62 8.56 22.05 7.42 31-.83 6.58-2.21 11.52-9.71 11.96-10.46.6-35.78-9.45-47-12.94-24.82-7.71-49.29-12.14-75-15.3-6.85-.85-24.27-1.24-28.26-6.85-2.02-2.84-1.73-6.56-1.74-9.87v-6l.82-12-.82-9-1-21c.16-8.4 4.3-10.67 12-12.33 15.13-3.26 26.26-2.13 38.96-13.85 4.84-4.47 8.46-10.59 10.52-16.82 2.43-7.35 1.33-11.36 7.52-17zm307 39c17.71 13.55 38.56 16.66 60 11.99l24-7.99c4.89 14.64 11.01 20.43 24 28.58 7.31 4.59 20.18 10.72 24 18.42l-16 6.31c-16.77 6.08-27.29 7.76-43 18.44-15 10.18-18.54 17.51-29 25.73-10.23 8.05-25.06 12.7-38 13.43-6.05.34-13.28-1.5-15.35-7.93-1.18-3.65.52-18.41 1.07-22.98l3.86-42 2.39-25c.2-3.64.86-14.06 2.03-17z"/>
  <path fill="none" stroke="#000" d="M210 181c16.36 7.09 27.03 19.97 46 20 26.67.04 43.53-10.69 65-25-3.58-6.9-16.82-13.01-24-15.99-24.25-10.05-47.92-7.63-70 6.43-5.83 3.71-12.87 9.05-17 14.56zM97 430c-6.11 9.02-3.57 9.46-6.93 18-3.02 7.7-7.62 13.46-14.07 18.62-7.55 6.04-18.54 8.89-28 10.1-9.84 1.25-18.83.71-19 13.28l1.04 16v9l.78 7-.82 10v6c.01 3.31-.28 7.03 1.74 9.87 3.99 5.61 21.41 6 28.26 6.85 25.47 3.13 50.43 7.67 75 15.3 11.53 3.59 36.1 13.56 47 12.94 7.73-.45 8.87-5.24 9.71-11.96 1.11-8.78-2.59-23.43-7.17-31-6.99-11.54-12.71-13.49-22.54-21.28-7.11-5.64-17.66-15.77-23.39-22.72-19.76-24.02-25.19-48.37-41.61-66zm307 39l-8 88v7c-1.03 8.97-2.69 17.27 9 19.72 1.97.2 3.99.3 6 0 11.9-.49 26.31-4.62 36-11.65 10.41-7.54 15.02-16.08 29-25.72 17.14-11.82 26.45-13.44 45-20.04l16-6.31c-3.74-7.73-15.84-13.28-23-18-14.22-9.38-18.77-13.02-25-29l-27 8.55c-23.84 4.8-37.68-1.19-58-12.55z"/>
</svg>