<svg xmlns="http://www.w3.org/2000/svg" width="159.36" height="163.521" viewBox="0 0 498 511">
  <path fill="#000" stroke="#000" d="M187 217c-1.76 4.43-1 13.9-1 19v39l-1 15v69c-.01 3.99.32 7.58-2.43 10.88-4.83 5.76-19.35 5.86-24.14 0-2.75-3.35-2.42-6.83-2.43-10.88V176c.03-14.45 7.23-14.08 19-14 10.6.07 12.27 5.9 17.67 14l27.91 43 74.73 116L383 471c10.76-4.12 29.58-21.58 38-30 30.28-30.28 50.44-61.32 64-102 6.24-18.71 12.77-47.37 13-67 .35-30.65.08-50.77-7.47-81C472.22 117.78 420.85 53.92 352 22.31 313.53 4.64 278.9-.49 237 0l-19 1.85c-46.37 5.54-90.01 24.66-126 54.4C63.43 79.86 38.81 111.23 23.31 145 12.1 169.41 5.52 192.46 1.73 219L0 235v40c.02 13.73 4.76 37.58 8.58 51C20.73 368.64 42.55 407.51 74 439c16.14 16.16 38.66 33.25 59 43.74 26.38 13.62 51.52 22.29 81 26.39l18 1.87c32.73.15 47.42.75 80-7.63 14.09-3.62 27.78-8.61 41-14.68 2.9-1.33 11.67-5.14 12.84-7.9 1.31-3.12-2.69-7.39-4.42-9.79L344 447l-71.67-101L187 217zm152 122c-4.25-4.17-8.36-11.81-11.69-17-3.09-4.81-16.75-25.32-17.8-29-.6-2.09-.51-4.81-.51-7V171c.02-9.64.7-15.84 12-16 3.85-.05 10.76-.63 13.89 1.6 3.75 2.66 4.05 6.22 4.11 10.4v172z"/>
</svg>