<?xml version="1.0" encoding="utf-8"?>
<!-- Generator: Adobe Illustrator 25.1.0, SVG Export Plug-In . SVG Version: 6.00 Build 0)  -->
<svg version="1.1" id="Calque_1" xmlns="http://www.w3.org/2000/svg" xmlns:xlink="http://www.w3.org/1999/xlink" x="0px" y="0px"
	 viewBox="0 0 1920 1080" style="enable-background:new 0 0 1920 1080;" xml:space="preserve">
<g>
	<path d="M943.18,482.99c-18.85,8.05-31.22,21.28-34.7,41.8c3.17,0.94,6.2,1.57,9.02,2.71c17.06,6.87,27.25,19.37,29.72,37.65
		c3.23,23.87-12.11,45.04-35.85,49.81c-13.9,2.79-26.78,0.37-38.18-8.3c-8.3-6.31-13.4-14.84-16.44-24.7
		c-3.15-10.2-4.23-20.62-3.21-31.23c1.06-11.12,4.35-21.62,9.17-31.67c5.1-10.63,11.63-20.27,20.04-28.58
		c10.29-10.16,22.37-17.44,36.01-22.12c4.59-1.58,9.34-2.69,14.03-4.01c0.96-0.27,1.77-0.25,2.28,0.86
		c2.59,5.7,5.22,11.37,7.84,17.06C942.99,482.48,943.07,482.71,943.18,482.99z"/>
	<path d="M1062.57,482.95c-18.86,8.02-31.19,21.26-34.8,41.9c1.41,0.38,2.83,0.74,4.23,1.14c19.52,5.62,31.15,18.55,34.48,38.44
		c4.06,24.24-12.78,46.93-37.2,50.82c-9.55,1.52-18.89,0.74-27.78-3.27c-12.35-5.57-20.47-15.08-24.74-27.78
		c-6.02-17.91-5.53-35.87,0.58-53.68c4.77-13.9,11.96-26.43,21.99-37.24c11.34-12.21,25.15-20.53,40.93-25.66
		c3.64-1.18,7.36-2.1,11.07-3.07c1.74-0.46,2.55-0.02,3.33,1.63C1057.29,471.72,1059.9,477.27,1062.57,482.95z"/>
</g>
</svg>
