<svg xmlns="http://www.w3.org/2000/svg" width="141.12" height="161.28" viewBox="0 0 441 504">
  <path fill="#00d2f5" d="M138 105l-27-4.58c-25.44-3.77-59.3-4.78-83 6.36C12.42 114.1.22 126.98 0 145c-.17 15.01 2.7 25 7.69 39 6.02 16.88 16.47 32.99 27.52 47l11.87 14c1.38 1.5 4.87 4.76 5.17 6.72.36 2.35-4.27 6.48-5.83 8.28l-18.54 23C14.59 301.06.04 329.16 0 352v5c.29 24.68 16.23 37.42 38 44.67C69.62 412.2 106.11 406 138 400c.93 6 6.44 21.86 8.81 28 9.02 23.36 18.25 40.08 36.19 58 10.85 10.84 20.1 17.98 36 18h4c14.97-.18 26.92-9.92 37-20 17.74-17.74 28.07-37.71 36.68-61 2.53-6.84 6.23-15.93 7.32-23l34 4.72c26.11 3.44 52.75 4.54 77-7.69 4.01-2.02 8.68-5.18 11.99-8.2 26.55-24.31 9.57-70.71-6.99-95.83l-12.63-18c-4.51-6.07-13.1-18.6-18.37-23l15.87-21c17.17-22.92 32.87-45.56 35.21-75 .25-3.05.83-4.86.6-8-.99-13.18-4.21-24.44-14.72-33.38-3.82-3.26-9.35-6.73-13.96-8.75-20.89-9.12-50.62-9.38-73-6.59L303 105c-1.24-8.76-5.67-19.66-9-28-8.87-22.23-22.26-48.02-41-63.38C242.79 5.24 230.53-.85 217 .09 201.98 1.13 191.23 9.71 181 20c-16.9 17.03-28.73 40.4-36.33 63-2.11 6.26-5.71 15.81-6.67 22zm144 7l-42 16.01c-5.45 2.25-15.33 7.42-21 6.77-3.47-.4-13.28-4.49-17-5.98l-28-11c-3.06-1.22-12.46-4.18-13.65-7.07-.86-2.07.64-5.68 1.32-7.73l5.38-16c6.82-18.58 15.47-35.21 28.8-49.99 5.88-6.52 12.91-13.21 22.15-13.92 8.63-.66 14.55 3.08 21 8.37 12.44 10.22 20.71 25.35 27.75 39.54 4.27 8.59 13.87 32.07 15.25 41zm-151 16l-9.14 62.99c-1.39 5.42-6.73 8.5-10.86 11.81l-28 22.4c-2.8 2.23-10.48 9.39-14 8.47-2.3-.61-5.04-3.9-6.58-5.67l-10.77-13c-12.01-15.59-24.67-35.29-27.9-55-1.21-7.42-2.89-16.26 1.25-23 3.82-6.2 10.48-8.4 17-10.66 14.15-4.89 32.13-7.39 47-5.62 13.69 1.62 29.11 1.88 42 7.28zm242 107c-6.73-3.04-14.97-11.45-21-16.39-10.21-8.35-25.45-16.13-31.19-27.61-4.42-8.82-3.94-18.46-5.09-28L310 127c14.74-1.99 28.99-5.98 44-6l21 1c15.03.08 36.18 2.34 41.89 19 1.26 3.67 1.15 7.18 1.11 11-.24 21.09-17.8 48.79-30.42 65L373 235zm-180-87v2l-47 27 7-43 40 14zm95-14l7 43-33-18.99c-4.71-2.76-11.14-5.25-14-10.01l40-14zm-68 28.6c6.31.57 15.38 6.85 21 10.2l41 23.8c10.85 6.43 15.98 6.21 16 19.4v72c-.01 3.3.3 6.98-1.74 9.79-1.92 2.67-9.16 6.55-12.26 8.41l-28 16.6-23 13.48c-3.31 1.88-8.25 5.39-12 5.49-3.81.1-7.78-2.66-11-4.49l-21-12.13-29-17.14c-10.92-6.42-16.98-6.5-17-20.01v-72c.02-12.87 5.69-12.95 16-19.01l39-23c5.94-3.49 15.59-9.99 22-11.39zm-2 43.86l-10 1.46c-13.7 3.6-24.42 14-29.54 27.08-1.78 4.57-2.4 8.13-2.23 13-.27 3.73-.4 9.47 0 13 3.9 20.37 20.9 35.75 41.77 36 9.09.1 13.61-.08 22-4.27 35.46-17.73 32.1-70.65-4-83.64-4.84-1.74-12.87-2.89-18-2.63zM323 224l33 27-16 14.59L322 280v-38l1-18zm-204 1v55l-33-27 15-14 18-14zm254 43c18.45 21.25 22.7 27.92 35.25 53 6.85 13.7 12.71 26.14 8.71 42-2.83 11.2-11.31 13.42-20.96 16.28-19.73 5.86-40.78 6.14-61 2.8l-16-3.2c-1.63-.38-5.21-1-6.41-2.04-1.99-1.71-.9-5.52-.64-7.84l2.9-22 3-23c.38-3.21.96-10.34 2.32-12.99 2.13-4.11 12.74-11.74 16.83-14.89L373 268zM132 378l-24 4.73c-16.93 2.49-32.02 2.96-49 .54-10.94-1.56-23.99-4.42-31.47-13.36-7.4-8.85-6.2-18.62-3.38-28.91 4.82-17.6 16.13-37.78 27.45-52l11.82-14c1.62-1.82 3.98-4.72 6.58-4.97 2.94-.28 5.99 3.09 8 4.9l15 12.27 18 14.55c2.59 2.14 7.51 5.74 9.27 8.34 2.49 3.69 4.15 17.87 4.86 22.91l6.87 45zm164-51l-7 44-42-15 19-12 30-17zm-102 29l-41 16-7-44 26 14.4 22 13.6zm89 37c-7.43 25.42-17.48 50.29-34.46 71-8.25 10.05-20.77 19.65-34.54 16.47-8.67-2-17.8-11.74-23.19-18.47-16.32-20.36-23.72-43.72-31.81-68l33-12.86c11.19-4.95 18.02-10.44 31-10.13 10.13.25 14.33 4.84 23 8.39l37 13.6z" stroke="#00d2f5" stroke-width="3px" stroke-linejoin="round" />
</svg>
