<svg xmlns="http://www.w3.org/2000/svg" width="293.334" height="353.334" viewBox="0 0 220 265">
  <path fill="#ff3e00" stroke="#ff3e00" d="M127 .43c-23.98 3.92-35.1 14.34-55 26.89L45 44.66l-15 9.86C18.11 63.89 9.55 76.46 5.43 91 2.49 101.36 2.98 105.59 3 116c.01 7.03.89 12.28 3.03 19 .87 2.74 3.73 8.76 3.69 11l-6.7 17C-.62 174.78-.06 180.05 0 192c.18 37.41 38.16 72.57 75 73 12.12.14 19.16.38 31-3.52 14.16-4.67 33.74-18.76 47-27.06l39-25.6c16.03-14.09 24.97-32.41 25-53.82.01-8.08-.54-15.15-2.75-23-1-3.57-4.25-10.03-4.09-13 .17-3.07 4.03-9.63 5.39-13 2.6-6.45 4.36-15.05 4.45-22 .14-12.21.16-20.22-4.23-32C202.15 15.43 164.87-4.25 127 .43zM186 95c-8.75-3.35-15.07-10.59-30-14-.02-2.33.06-4.74-.65-7C152.87 66.1 145 61.12 137 63.97c-4.4 1.56-11.69 6.91-16 9.61L86 95.95c-6.1 3.87-17.25 9.39-18.57 17.05-1.12 6.54 7.37 18.21 18.57 14.01 9.01-3.38 24.3-17.29 38-21.23 29.21-8.4 61.63 13.06 62 44.22.07 6.6.2 10.62-2.09 17-2.07 5.77-5.66 11.57-10 15.91-6.04 6.04-36.52 24.33-45.91 30.43-17.72 11.51-29.04 21.91-51 21.66-25.73-.31-44.74-21.09-46.83-46-.47-5.68 1.69-13.34 2.83-19 6.23 1.98 11.36 6.63 18 9.69 2.37 1.09 10.02 3.79 11.4 5.15 2.08 2.04 1.22 4.77 2.61 8.16 2.09 5.11 7.38 9.07 12.99 9.07 6.07 0 14.86-6.75 20-10.02l34-21.71c4.24-2.75 13.7-8.22 16.77-11.52 4.82-5.17 3.89-12.8-.98-17.61-6.59-6.48-12.96-4.12-19.79 0l-26 15.75C67.49 171.98 28.37 143.88 34 106c.82-5.51 2.87-11.23 5.76-16C46.61 78.68 59.08 72.41 70 65.58l33-21c15.59-9.77 20.68-14.8 40-14.58 23.6.28 45.72 21.15 46 45 .09 8.3.34 12.13-3 20z"/>
</svg>