<svg xmlns="http://www.w3.org/2000/svg" width="163.2" height="191.68" viewBox="0 0 510 599">
  <path fill="none" stroke="#000" d="M507 0l-18 3.42-46 9.79-114 24.37-49 10.3L237 57c-5.52 1.14-15.64 2.43-19.95 5.65-5.26 3.93-5.04 8.45-5.05 14.35v194c.01 4.77-.33 9.18 4.11 12.26 3.54 2.47 11.52 1.74 15.89 1.74h37l15-1h76l15-1h90l17-1h26V84 26l-1-26zM0 287h75l15-1h79c4.36-.01 10.3.23 13.49-3.3 2.79-3.09 2.5-7.82 2.51-11.7v-36V83l-1-14-45 9-97 20.6-28 6-12.4 3.38L0 116v171zm0 25v164c.01 4.38-.24 8.14 2.65 11.82 3.51 4.46 9.11 5.59 14.35 6.76l25 5.54L184 530V312H0zm213 2c-2.06 15.62-1 56.83-1 75v135c.01 4.79-.38 9.09 4.11 12.15 3.06 2.09 17.47 4.77 21.89 5.65l43 9.2 228 48V353l1-15c.06-5.83.18-15.58-5.11-19.26-3.15-2.2-14.75-2.73-18.89-2.74h-74l-15-1h-58l-17-1h-54l-15-1c-10.49-.12-30.46-.71-40 1z"/>
</svg>